<svg xmlns="http://www.w3.org/2000/svg" viewBox="0 0 595.28 146.81"><defs><style>.cls-1{fill:#4d75ff;}.cls-2{font-size:11px;font-family:Play-Regular, Play;}.cls-2,.cls-4{fill:#fff;}.cls-3{fill:#26c568;}</style></defs><title>Ресурс 2</title><g id="Слой_2" data-name="Слой 2"><g id="Слой_1-2" data-name="Слой 1"><rect class="cls-1" width="595.28" height="146.81"/><text class="cls-2" transform="translate(7.07 15.14)">студия английского языка</text><text class="cls-2" transform="translate(7.07 35.13)">студия английского языка</text><text class="cls-2" transform="translate(7.07 55.12)">студия английского языка</text><text class="cls-2" transform="translate(7.07 75.12)">студия английского языка</text><text class="cls-2" transform="translate(7.07 95.11)">студия английского языка</text><text class="cls-2" transform="translate(7.07 115.1)">студия английского языка</text><text class="cls-2" transform="translate(7.07 135.1)">студия английского языка</text><text class="cls-2" transform="translate(154.34 15.14)">студия английского языка</text><text class="cls-2" transform="translate(154.34 35.13)">студия английского языка</text><text class="cls-2" transform="translate(154.34 55.12)">студия английского языка</text><text class="cls-2" transform="translate(154.34 75.12)">студия английского языка</text><text class="cls-2" transform="translate(154.34 95.11)">студия английского языка</text><text class="cls-2" transform="translate(154.34 115.1)">студия английского языка</text><text class="cls-2" transform="translate(154.34 135.1)">студия английского языка</text><text class="cls-2" transform="translate(301.61 15.14)">студия английского языка</text><text class="cls-2" transform="translate(301.61 35.13)">студия английского языка</text><text class="cls-2" transform="translate(301.61 55.12)">студия английского языка</text><text class="cls-2" transform="translate(301.61 75.12)">студия английского языка</text><text class="cls-2" transform="translate(301.61 95.11)">студия английского языка</text><text class="cls-2" transform="translate(301.61 115.1)">студия английского языка</text><text class="cls-2" transform="translate(301.61 135.1)">студия английского языка</text><text class="cls-2" transform="translate(448.89 15.14)">студия английского языка</text><text class="cls-2" transform="translate(448.89 35.13)">студия английского языка</text><text class="cls-2" transform="translate(448.89 55.12)">студия английского языка</text><text class="cls-2" transform="translate(448.89 75.12)">студия английского языка</text><text class="cls-2" transform="translate(448.89 95.11)">студия английского языка</text><text class="cls-2" transform="translate(448.89 115.1)">студия английского языка</text><text class="cls-2" transform="translate(448.89 135.1)">студия английского языка</text><path class="cls-3" d="M266.45,39.65l-6.81,1.45v-6l20-4.19v5.9l-6.72,1.43V73.8l-6.47,1.49Z"/><path class="cls-3" d="M282.73,30.3,289.09,29V45.71l6.79-1.48V27.55l6.28-1.32V67.07l-6.28,1.45V50.08l-6.79,1.5v18.5l-6.37,1.47Z"/><path class="cls-3" d="M306.82,25.26l16.85-3.53V27.5L313,29.76V40.49l8.46-1.84v5.78L313,46.29V58.76l10.64-2.42v5.77L306.82,66Z"/><path class="cls-4" d="M262.94,39.65l-6.81,1.45v-6l20-4.19v5.9l-6.72,1.43V73.8l-6.47,1.49Z"/><path class="cls-4" d="M279.21,30.3,285.58,29V45.71l6.79-1.48V27.55l6.28-1.32V67.07l-6.28,1.45V50.08l-6.79,1.5v18.5l-6.37,1.47Z"/><path class="cls-4" d="M303.31,25.26l16.85-3.53V27.5l-10.64,2.26V40.49L318,38.64v5.78l-8.46,1.87V58.76l10.64-2.42v5.77L303.31,66Z"/><path class="cls-3" d="M265.22,88.38l9.08-1.9q4.62-1,6.73.84t2.11,6.46v1.59a12.84,12.84,0,0,1-.95,5.2A7.75,7.75,0,0,1,279.3,104v.11q4.43.62,4.43,7.32v3.41a11.88,11.88,0,0,1-2.3,7.54,11.48,11.48,0,0,1-6.75,4l-9.47,2.18Zm8.38,14.51a4.44,4.44,0,0,0,2.69-1.56,5.57,5.57,0,0,0,.9-3.44V95.67a4.52,4.52,0,0,0-.73-3,2.29,2.29,0,0,0-2.31-.48l-2.89.61V103.4Zm1.09,17.73a3.77,3.77,0,0,0,2.34-1.42,5.53,5.53,0,0,0,.76-3.22v-3.47q0-2.73-.9-3.59t-3-.4l-2.67.59V121.4Z"/><path class="cls-3" d="M287.18,83.78l16-3.35V86l-10.09,2.14V98.64l8-1.75v5.63l-8,1.77v12.15l10.09-2.29v5.62l-16,3.68Z"/><path class="cls-3" d="M307.74,116.72q-2.16-2.06-2.16-6.83v-2.24l5.46-1.23v2.69q0,3.81,3,3.13a3.53,3.53,0,0,0,2.22-1.42,5.53,5.53,0,0,0,.76-3.16,7.47,7.47,0,0,0-1-4.09,14.57,14.57,0,0,0-3.86-3.64,17.69,17.69,0,0,1-5-5,11.31,11.31,0,0,1-1.42-5.84,12.66,12.66,0,0,1,2.21-7.68,10.15,10.15,0,0,1,6.39-3.89q4.12-.86,6.22,1.23t2.1,6.82V87.2l-5.4,1.16v-2a4,4,0,0,0-.73-2.77,2.15,2.15,0,0,0-2.14-.47q-2.87.61-2.88,4.36a6.59,6.59,0,0,0,1.07,3.74,15.51,15.51,0,0,0,3.89,3.62,16.36,16.36,0,0,1,4.94,5,12.45,12.45,0,0,1,1.35,6.1,13.11,13.11,0,0,1-2.2,7.85,10.46,10.46,0,0,1-6.43,4Q309.9,118.77,307.74,116.72Z"/><path class="cls-3" d="M330.39,80.27l-5.92,1.26V76l17.39-3.64v5.5L336,79.07V112.2l-5.63,1.3Z"/><path class="cls-3" d="M345,87.71v-16l5.54-1.16V99L345,100Zm.1,16.57,5.34-1.21v5.81l-5.34,1.23Z"/><path class="cls-4" d="M262.58,88.38l9.08-1.9q4.62-1,6.73.84t2.11,6.46v1.59a12.84,12.84,0,0,1-.95,5.2,7.75,7.75,0,0,1-2.89,3.42v.11q4.43.62,4.43,7.32v3.41a11.88,11.88,0,0,1-2.3,7.54,11.48,11.48,0,0,1-6.75,4l-9.47,2.18ZM271,102.89a4.44,4.44,0,0,0,2.69-1.56,5.57,5.57,0,0,0,.9-3.44V95.67a4.52,4.52,0,0,0-.73-3,2.29,2.29,0,0,0-2.31-.48l-2.89.61V103.4ZM272,120.62a3.77,3.77,0,0,0,2.34-1.42,5.53,5.53,0,0,0,.76-3.22v-3.47q0-2.73-.9-3.59t-3-.4l-2.67.59V121.4Z"/><path class="cls-4" d="M284.54,83.78l16-3.35V86l-10.09,2.14V98.64l8-1.75v5.63l-8,1.77v12.15l10.09-2.29v5.62l-16,3.68Z"/><path class="cls-4" d="M305.11,116.72q-2.16-2.06-2.16-6.83v-2.24l5.46-1.23v2.69q0,3.81,3,3.13a3.53,3.53,0,0,0,2.22-1.42,5.53,5.53,0,0,0,.76-3.16,7.47,7.47,0,0,0-1-4.09,14.57,14.57,0,0,0-3.86-3.64,17.69,17.69,0,0,1-5-5,11.31,11.31,0,0,1-1.42-5.84,12.66,12.66,0,0,1,2.21-7.68,10.15,10.15,0,0,1,6.39-3.89q4.12-.86,6.22,1.23t2.1,6.82V87.2l-5.4,1.16v-2a4,4,0,0,0-.73-2.77,2.15,2.15,0,0,0-2.14-.47q-2.87.61-2.88,4.36a6.59,6.59,0,0,0,1.07,3.74,15.51,15.51,0,0,0,3.89,3.62,16.36,16.36,0,0,1,4.94,5,12.45,12.45,0,0,1,1.35,6.1,13.11,13.11,0,0,1-2.2,7.85,10.46,10.46,0,0,1-6.43,4Q307.26,118.77,305.11,116.72Z"/><path class="cls-4" d="M327.76,80.27l-5.92,1.26V76l17.39-3.64v5.5l-5.85,1.24V112.2l-5.63,1.3Z"/><path class="cls-4" d="M342.37,87.71v-16l5.54-1.16V99l-5.54,1Zm.1,16.57,5.34-1.21v5.81l-5.34,1.23Z"/></g></g></svg>