<svg xmlns="http://www.w3.org/2000/svg" viewBox="0 0 63 63"><defs><style>.cls-1{fill:#4d75ff;}.cls-2{fill:#26c568;}.cls-3{fill:#fff;}</style></defs><title>Ресурс 1</title><g id="Слой_2" data-name="Слой 2"><g id="Слой_1-2" data-name="Слой 1"><circle class="cls-1" cx="31.5" cy="31.5" r="31.5"/><path class="cls-2" d="M18.82,17.61l-2.54.54V15.93l7.45-1.56v2.2l-2.5.53V30.32l-2.41.55Z"/><path class="cls-2" d="M24.88,14.13l2.37-.5v6.23l2.53-.55V13.11l2.34-.49v15.2l-2.34.54V21.49L27.25,22v6.88l-2.37.55Z"/><path class="cls-2" d="M33.84,12.25l6.27-1.31v2.15l-4,.84v4l3.15-.69v2.15l-3.15.7v4.64l4-.9V26l-6.27,1.44Z"/><path class="cls-3" d="M17.51,17.61,15,18.15V15.93l7.45-1.56v2.2l-2.5.53V30.32l-2.41.55Z"/><path class="cls-3" d="M23.57,14.13l2.37-.5v6.23l2.53-.55V13.11l2.34-.49v15.2l-2.34.54V21.49L25.94,22v6.88l-2.37.55Z"/><path class="cls-3" d="M32.54,12.25l6.27-1.31v2.15l-4,.84v4L38,17.24v2.15l-3.15.7v4.64l4-.9V26l-6.27,1.44Z"/><path class="cls-2" d="M18.36,35.74,21.74,35a2.88,2.88,0,0,1,2.5.31,3,3,0,0,1,.78,2.4v.59a4.78,4.78,0,0,1-.35,1.94,2.89,2.89,0,0,1-1.08,1.27v0q1.65.23,1.65,2.72v1.27a4.42,4.42,0,0,1-.85,2.8,4.27,4.27,0,0,1-2.51,1.48l-3.52.81Zm3.12,5.4a1.65,1.65,0,0,0,1-.58,2.07,2.07,0,0,0,.33-1.28v-.83a1.68,1.68,0,0,0-.27-1.11.85.85,0,0,0-.86-.18l-1.08.23v3.93Zm.41,6.6a1.4,1.4,0,0,0,.87-.53A2.06,2.06,0,0,0,23,46V44.72a1.9,1.9,0,0,0-.33-1.34,1.18,1.18,0,0,0-1.1-.15l-1,.22V48Z"/><path class="cls-2" d="M26.53,34l5.95-1.25v2.09l-3.76.8v3.89l3-.65V41l-3,.66v4.52l3.76-.85v2.09l-5.95,1.37Z"/><path class="cls-2" d="M34.19,46.29a3.4,3.4,0,0,1-.8-2.54v-.84l2-.46v1q0,1.42,1.11,1.16a1.31,1.31,0,0,0,.82-.53,2.06,2.06,0,0,0,.28-1.17,2.78,2.78,0,0,0-.39-1.52A5.42,5.42,0,0,0,35.81,40,6.58,6.58,0,0,1,34,38.18,4.21,4.21,0,0,1,33.42,36a4.71,4.71,0,0,1,.82-2.86,3.78,3.78,0,0,1,2.38-1.45,2.4,2.4,0,0,1,2.31.46,3.48,3.48,0,0,1,.78,2.54v.6l-2,.43V35a1.5,1.5,0,0,0-.27-1,.8.8,0,0,0-.8-.17q-1.07.23-1.07,1.62A2.45,2.45,0,0,0,36,36.8a5.77,5.77,0,0,0,1.45,1.35A6.09,6.09,0,0,1,39.26,40a4.63,4.63,0,0,1,.5,2.27,4.88,4.88,0,0,1-.82,2.92,3.89,3.89,0,0,1-2.39,1.5A2.45,2.45,0,0,1,34.19,46.29Z"/><path class="cls-2" d="M42.61,32.72l-2.2.47V31.13l6.47-1.36v2l-2.18.46V44.61l-2.09.48Z"/><path class="cls-2" d="M48.05,35.5v-6l2.06-.43V39.69l-2.06.37Zm0,6.17,2-.45v2.16l-2,.46Z"/><path class="cls-3" d="M17.38,35.74,20.76,35a2.88,2.88,0,0,1,2.5.31,3,3,0,0,1,.78,2.4v.59a4.78,4.78,0,0,1-.35,1.94,2.89,2.89,0,0,1-1.08,1.27v0q1.65.23,1.65,2.72v1.27a4.42,4.42,0,0,1-.85,2.8,4.27,4.27,0,0,1-2.51,1.48l-3.52.81Zm3.12,5.4a1.65,1.65,0,0,0,1-.58,2.07,2.07,0,0,0,.33-1.28v-.83a1.68,1.68,0,0,0-.27-1.11.85.85,0,0,0-.86-.18l-1.08.23v3.93Zm.41,6.6a1.4,1.4,0,0,0,.87-.53,2.06,2.06,0,0,0,.28-1.2V44.72a1.9,1.9,0,0,0-.33-1.34,1.18,1.18,0,0,0-1.1-.15l-1,.22V48Z"/><path class="cls-3" d="M25.55,34l5.95-1.25v2.09l-3.76.8v3.89l3-.65V41l-3,.66v4.52l3.76-.85v2.09l-5.95,1.37Z"/><path class="cls-3" d="M33.21,46.29a3.4,3.4,0,0,1-.8-2.54v-.84l2-.46v1q0,1.42,1.11,1.16a1.31,1.31,0,0,0,.82-.53,2.06,2.06,0,0,0,.28-1.17,2.78,2.78,0,0,0-.39-1.52A5.42,5.42,0,0,0,34.83,40,6.58,6.58,0,0,1,33,38.18,4.21,4.21,0,0,1,32.44,36a4.71,4.71,0,0,1,.82-2.86,3.78,3.78,0,0,1,2.38-1.45,2.4,2.4,0,0,1,2.31.46,3.48,3.48,0,0,1,.78,2.54v.6l-2,.43V35a1.5,1.5,0,0,0-.27-1,.8.8,0,0,0-.8-.17q-1.07.23-1.07,1.62A2.45,2.45,0,0,0,35,36.8a5.77,5.77,0,0,0,1.45,1.35A6.09,6.09,0,0,1,38.28,40a4.63,4.63,0,0,1,.5,2.27A4.88,4.88,0,0,1,38,45.19a3.89,3.89,0,0,1-2.39,1.5A2.45,2.45,0,0,1,33.21,46.29Z"/><path class="cls-3" d="M41.63,32.72l-2.2.47V31.13l6.47-1.36v2l-2.18.46V44.61l-2.09.48Z"/><path class="cls-3" d="M47.07,35.5v-6l2.06-.43V39.69l-2.06.37Zm0,6.17,2-.45v2.16l-2,.46Z"/></g></g></svg>